<svg xmlns="http://www.w3.org/2000/svg" width="220" height="54" viewBox="0 0 220 54"><path d="M23.643 12.69c0 3.072-1.336 5.877-4.007 7.213-1.203.668-3.874.801-6.813.801H5.61V4.542h7.213c2.939 0 5.477.133 6.813.801 2.671 1.47 4.007 4.14 4.007 7.347Zm5.877 0c0-4.675-1.87-8.95-5.61-10.82C20.304 0 16.296 0 12.69 0H0v41.943h5.61V25.38h6.679c5.21 0 9.083-.535 11.488-2.004 3.473-2.004 5.743-5.744 5.743-10.686ZM37 24.31c.802-6.01 3.874-8.815 8.416-8.815 4.274 0 7.48 2.805 8.015 8.816H37Zm-.133 4.409h22.174c0-10.953-4.275-17.365-13.491-17.365-8.817 0-14.293 6.812-14.293 15.762 0 9.751 5.076 15.762 14.159 15.762 6.812 0 12.289-3.34 13.491-9.751h-5.61C52.228 37 49.29 38.603 45.55 38.603c-4.81 0-8.416-4.007-8.683-9.884Zm40.874-12.29c1.069 0 2.138.135 3.473.402v-4.676c-1.068-.267-2.27-.4-3.34-.4-3.338 0-6.01 1.202-8.414 4.675v-4.408h-5.076v29.787h5.343V28.185c.133-7.213 1.603-11.755 8.014-11.755Zm11.087 3.207c0-2.538 2.404-4.141 6.011-4.141 4.542 0 6.679 1.87 6.812 5.877h5.21c0-6.412-4.408-10.018-11.888-10.018-7.08 0-11.621 3.607-11.621 8.682 0 7.213 5.877 8.149 11.086 9.217 4.008.802 7.614 1.47 7.614 5.076 0 2.939-2.27 4.408-6.412 4.408-4.541 0-7.346-1.87-7.747-5.61H82.55c.4 6.144 5.076 9.751 12.957 9.751 6.946 0 12.155-3.473 12.155-8.95 0-7.346-6.278-8.415-11.487-9.484-3.874-.801-7.347-1.469-7.347-4.808Zm45.683 7.346c0 7.08-3.206 11.354-8.014 11.354-5.076 0-8.416-4.541-8.416-11.354 0-6.678 3.34-11.354 8.416-11.354 4.942.134 8.014 4.275 8.014 11.354Zm5.477 0c0-9.083-4.542-15.494-12.423-15.494-4.408 0-7.48 1.736-9.484 4.675v-4.008h-5.076v41.41h5.344V38.602c1.87 2.806 5.075 4.008 9.083 4.008 7.213-.134 12.556-5.877 12.556-15.629Zm9.217-2.671c.801-6.011 3.873-8.816 8.415-8.816 4.274 0 7.48 2.805 8.014 8.816h-16.429Zm-.134 4.408h22.174c0-10.953-4.275-17.365-13.492-17.365-8.816 0-14.292 6.812-14.292 15.762 0 9.751 5.076 15.762 14.159 15.762 6.812 0 12.289-3.34 13.491-9.751h-5.61c-1.069 3.874-4.007 5.476-7.748 5.476-4.808 0-8.415-4.007-8.682-9.884Zm46.752-6.813h5.476c-.935-6.678-5.343-10.552-12.556-10.552-8.949 0-14.025 6.812-14.025 15.762 0 9.35 4.942 15.762 13.892 15.762 6.812 0 10.953-3.206 12.422-9.751h-5.209c-1.069 3.74-3.607 5.476-7.213 5.476-5.343 0-8.416-4.675-8.416-11.487s2.939-11.488 8.416-11.488c4.14-.133 6.545 2.004 7.213 6.279Zm17.632 9.484V16.563h6.411v-4.408h-6.411V4.942h-5.343v7.213h-5.477v4.408h5.477v17.365c0 6.546 2.805 8.55 7.48 8.55a17.98 17.98 0 0 0 4.408-.535v-4.274c-1.202.267-2.137.267-2.939.267-3.339 0-3.606-2.405-3.606-6.546Z"/></svg>